<svg width="7" height="7" viewBox="0 0 7 7" fill="none" xmlns="http://www.w3.org/2000/svg">
<path d="M3.5 1.29833C3.56483 1.29833 3.62701 1.27258 3.67285 1.22673C3.71869 1.18089 3.74445 1.11872 3.74445 1.05389V0.371385C3.74445 0.306555 3.71869 0.244379 3.67285 0.198537C3.62701 0.152695 3.56483 0.126941 3.5 0.126941C3.43517 0.126941 3.373 0.152695 3.32715 0.198537C3.28131 0.244379 3.25556 0.306555 3.25556 0.371385V1.05389C3.25556 1.11872 3.28131 1.18089 3.32715 1.22673C3.373 1.27258 3.43517 1.29833 3.5 1.29833Z" fill="#F2994A" fill-opacity="0.5" stroke="#EB5757" stroke-width="0.1"/>
<path d="M3.5 5.70166C3.43517 5.70166 3.373 5.72742 3.32715 5.77326C3.28131 5.8191 3.25556 5.88128 3.25556 5.94611V6.62861C3.25556 6.69344 3.28131 6.75561 3.32715 6.80146C3.373 6.8473 3.43517 6.87305 3.5 6.87305C3.56483 6.87305 3.62701 6.8473 3.67285 6.80146C3.71869 6.75561 3.74445 6.69344 3.74445 6.62861V5.94611C3.74445 5.88128 3.71869 5.8191 3.67285 5.77326C3.62701 5.72742 3.56483 5.70166 3.5 5.70166Z" fill="#F2994A" fill-opacity="0.5" stroke="#EB5757" stroke-width="0.1"/>
<path d="M1.59798 1.94286L1.59787 1.94296L1.60081 1.94548C1.64757 1.98552 1.70772 2.00645 1.76925 2.00407C1.83077 2.0017 1.88912 1.97619 1.93266 1.93266C1.97619 1.88912 2.0017 1.83077 2.00407 1.76925C2.00645 1.70772 1.98552 1.64757 1.94548 1.60081L1.94559 1.60071L1.94286 1.59798L1.46063 1.11576L1.46074 1.11565L1.4578 1.11313C1.41104 1.07309 1.35089 1.05216 1.28936 1.05454C1.22784 1.05691 1.16949 1.08242 1.12595 1.12595C1.08242 1.16949 1.05691 1.22784 1.05454 1.28936C1.05216 1.35089 1.07309 1.41104 1.11313 1.4578L1.11302 1.4579L1.11576 1.46063L1.59798 1.94286Z" fill="#F2994A" fill-opacity="0.5" stroke="#EB5757" stroke-width="0.1"/>
<path d="M5.40202 5.05715L5.40213 5.05704L5.39919 5.05452C5.35243 5.01448 5.29228 4.99355 5.23076 4.99593C5.16923 4.9983 5.11088 5.02381 5.06734 5.06734C5.02381 5.11088 4.9983 5.16923 4.99593 5.23076C4.99355 5.29228 5.01448 5.35243 5.05452 5.39919L5.05441 5.39929L5.05715 5.40202L5.53937 5.88424L5.53926 5.88435L5.5422 5.88687C5.58896 5.92691 5.64911 5.94784 5.71064 5.94546C5.77216 5.94309 5.83051 5.91758 5.87405 5.87405C5.91758 5.83051 5.94309 5.77216 5.94546 5.71064C5.94784 5.64911 5.92691 5.58896 5.88687 5.5422L5.88698 5.5421L5.88424 5.53937L5.40202 5.05715Z" fill="#F2994A" fill-opacity="0.5" stroke="#EB5757" stroke-width="0.1"/>
<path d="M1.29833 3.5C1.29833 3.43517 1.27258 3.373 1.22673 3.32715C1.18089 3.28131 1.11872 3.25556 1.05389 3.25556H0.371385C0.306555 3.25556 0.244379 3.28131 0.198537 3.32715C0.152695 3.373 0.126941 3.43517 0.126941 3.5C0.126941 3.56483 0.152695 3.62701 0.198537 3.67285C0.244379 3.71869 0.306555 3.74445 0.371385 3.74445H1.05389C1.11872 3.74445 1.18089 3.71869 1.22673 3.67285C1.27258 3.62701 1.29833 3.56483 1.29833 3.5Z" fill="#F2994A" fill-opacity="0.5" stroke="#EB5757" stroke-width="0.1"/>
<path d="M6.62861 3.25556H5.94611C5.88128 3.25556 5.8191 3.28131 5.77326 3.32715C5.72742 3.373 5.70166 3.43517 5.70166 3.5C5.70166 3.56483 5.72742 3.62701 5.77326 3.67285C5.8191 3.71869 5.88128 3.74445 5.94611 3.74445H6.62861C6.69344 3.74445 6.75561 3.71869 6.80146 3.67285C6.8473 3.62701 6.87305 3.56483 6.87305 3.5C6.87305 3.43517 6.8473 3.373 6.80146 3.32715C6.75561 3.28131 6.69344 3.25556 6.62861 3.25556Z" fill="#F2994A" fill-opacity="0.5" stroke="#EB5757" stroke-width="0.1"/>
<path d="M1.60081 5.05452L1.60071 5.05441L1.59798 5.05715L1.11576 5.53937L1.11565 5.53926L1.11313 5.5422C1.07309 5.58896 1.05216 5.64911 1.05454 5.71064C1.05691 5.77216 1.08242 5.83051 1.12595 5.87405C1.16949 5.91758 1.22784 5.94309 1.28936 5.94546C1.35089 5.94784 1.41104 5.92691 1.4578 5.88687L1.4579 5.88698L1.46063 5.88424L1.94286 5.40202L1.94296 5.40213L1.94548 5.39919C1.98552 5.35243 2.00645 5.29228 2.00407 5.23076C2.0017 5.16923 1.97619 5.11088 1.93266 5.06734C1.88912 5.02381 1.83077 4.9983 1.76925 4.99593C1.70772 4.99355 1.64757 5.01448 1.60081 5.05452Z" fill="#F2994A" fill-opacity="0.5" stroke="#EB5757" stroke-width="0.1"/>
<path d="M5.39919 1.94548L5.39929 1.94559L5.40202 1.94286L5.88424 1.46063L5.88435 1.46074L5.88687 1.4578C5.92691 1.41104 5.94784 1.35089 5.94546 1.28936C5.94309 1.22784 5.91758 1.16949 5.87405 1.12595C5.83051 1.08242 5.77216 1.05691 5.71064 1.05454C5.64911 1.05216 5.58896 1.07309 5.5422 1.11313L5.5421 1.11302L5.53937 1.11576L5.05715 1.59798L5.05704 1.59787L5.05452 1.60081C5.01448 1.64757 4.99355 1.70772 4.99593 1.76925C4.9983 1.83077 5.02381 1.88912 5.06734 1.93266C5.11088 1.97619 5.16923 2.0017 5.23076 2.00407C5.29228 2.00645 5.35243 1.98552 5.39919 1.94548Z" fill="#F2994A" fill-opacity="0.5" stroke="#EB5757" stroke-width="0.1"/>
<path d="M3.5 5.49445C4.6015 5.49445 5.49445 4.6015 5.49445 3.5C5.49445 2.3985 4.6015 1.50556 3.5 1.50556C2.3985 1.50556 1.50556 2.3985 1.50556 3.5C1.50556 4.6015 2.3985 5.49445 3.5 5.49445Z" fill="#F2994A" fill-opacity="0.5" stroke="#EB5757" stroke-width="0.1"/>
</svg>
