<svg width="40" height="41" viewBox="0 0 40 41" fill="none" xmlns="http://www.w3.org/2000/svg">
<path fill-rule="evenodd" clip-rule="evenodd" d="M24.8 14.6363H20V17.0363H24.8V14.6363ZM24.8 18.2363H20V19.4363H24.8V18.2363ZM18.8 14.6363H15.2V19.4363H18.8V14.6363ZM18.8 21.8363H24.8V20.6363H18.8V21.8363ZM22.4 24.2363H24.8V23.0363H22.4V24.2363ZM24.8 25.4363H15.2V26.6363H24.8V25.4363ZM21.2 23.0363H15.2V24.2363H21.2V23.0363ZM17.6 20.6363H15.2V21.8363H17.6V20.6363ZM28.4 9.83629H11.6C11.2817 9.83629 10.9765 9.96272 10.7515 10.1878C10.5264 10.4128 10.4 10.718 10.4 11.0363V30.2363C10.4 30.5545 10.5264 30.8598 10.7515 31.0848C10.9765 31.3099 11.2817 31.4363 11.6 31.4363H28.4C28.7183 31.4363 29.0235 31.3099 29.2485 31.0848C29.4736 30.8598 29.6 30.5545 29.6 30.2363V11.0363C29.6 10.718 29.4736 10.4128 29.2485 10.1878C29.0235 9.96272 28.7183 9.83629 28.4 9.83629ZM27.2 29.0363H12.8V12.2363H27.2V29.0363Z" fill="#6FCF97"/>
<path d="M20 38.6363C10.0589 38.6363 2 30.5774 2 20.6363H-2C-2 32.7866 7.84974 42.6363 20 42.6363V38.6363ZM38 20.6363C38 30.5774 29.9411 38.6363 20 38.6363V42.6363C32.1503 42.6363 42 32.7866 42 20.6363H38ZM20 2.63629C29.9411 2.63629 38 10.6952 38 20.6363H42C42 8.48603 32.1503 -1.36371 20 -1.36371V2.63629ZM20 -1.36371C7.84974 -1.36371 -2 8.48603 -2 20.6363H2C2 10.6952 10.0589 2.63629 20 2.63629V-1.36371Z" fill="#6FCF97"/>
</svg>
