<svg width="40" height="40" viewBox="0 0 40 40" fill="none" xmlns="http://www.w3.org/2000/svg">
<path d="M30.5 27.5V29H10.25L9.5 28.25V8H11V27.5H30.5Z" fill="#6FCF97"/>
<path d="M27.5 12.8105L19.781 20.531H18.719L16.25 18.0605L10.781 23.531L9.719 22.469L15.719 16.469H16.781L19.25 18.9395L26.969 11.219H28.0295L31.0295 14.219L29.969 15.281L27.5 12.8105Z" fill="#6FCF97"/>
<path d="M20 38C10.0589 38 2 29.9411 2 20H-2C-2 32.1503 7.84974 42 20 42V38ZM38 20C38 29.9411 29.9411 38 20 38V42C32.1503 42 42 32.1503 42 20H38ZM20 2C29.9411 2 38 10.0589 38 20H42C42 7.84974 32.1503 -2 20 -2V2ZM20 -2C7.84974 -2 -2 7.84974 -2 20H2C2 10.0589 10.0589 2 20 2V-2Z" fill="#6FCF97"/>
</svg>
