<svg width="20" height="22" viewBox="0 0 20 22" fill="none" xmlns="http://www.w3.org/2000/svg">
<path fill-rule="evenodd" clip-rule="evenodd" d="M14.6333 5.00001H9.83335V7.40001H14.6333V5.00001ZM14.6333 8.60001H9.83335V9.80001H14.6333V8.60001ZM8.63335 5.00001H5.03335V9.80001H8.63335V5.00001ZM8.63335 12.2H14.6333V11H8.63335V12.2ZM12.2333 14.6H14.6333V13.4H12.2333V14.6ZM14.6333 15.8H5.03335V17H14.6333V15.8ZM11.0333 13.4H5.03335V14.6H11.0333V13.4ZM7.43335 11H5.03335V12.2H7.43335V11ZM18.2333 0.200012H1.43335C1.11509 0.200012 0.809861 0.32644 0.584817 0.551484C0.359773 0.776528 0.233345 1.08175 0.233345 1.40001V20.6C0.233345 20.9183 0.359773 21.2235 0.584817 21.4485C0.809861 21.6736 1.11509 21.8 1.43335 21.8H18.2333C18.5516 21.8 18.8568 21.6736 19.0819 21.4485C19.3069 21.2235 19.4333 20.9183 19.4333 20.6V1.40001C19.4333 1.08175 19.3069 0.776528 19.0819 0.551484C18.8568 0.32644 18.5516 0.200012 18.2333 0.200012ZM17.0333 19.4H2.63335V2.60001H17.0333V19.4Z" fill="black"/>
</svg>
