<svg width="16" height="16" viewBox="0 0 16 16" fill="none" xmlns="http://www.w3.org/2000/svg">
<path fill-rule="evenodd" clip-rule="evenodd" d="M8.75 10.25L8 11.75L7.25 10.25V6.3935C5.95925 6.05825 5 4.8935 5 3.5C5 1.8455 6.3455 0.5 8 0.5C9.6545 0.5 11 1.8455 11 3.5C11 4.8935 10.0407 6.05825 8.75 6.3935V10.25ZM8 2C7.17275 2 6.5 2.67275 6.5 3.5C6.5 4.32725 7.17275 5 8 5C8.82725 5 9.5 4.32725 9.5 3.5C9.5 2.67275 8.82725 2 8 2ZM10.8005 8.36824L11.2003 6.92224C13.8523 7.65499 15.5 9.21724 15.5 11C15.5 13.523 12.2052 15.5 8 15.5C3.79475 15.5 0.5 13.523 0.5 11C0.5 9.21724 2.14775 7.65499 4.8005 6.92149L5.20025 8.36749C3.25625 8.90524 2 9.93799 2 11C2 12.419 4.46375 14 8 14C11.5363 14 14 12.419 14 11C14 9.93799 12.7438 8.90524 10.8005 8.36824Z" fill="black"/>
</svg>
