<svg width="7" height="7" viewBox="0 0 7 7" fill="none" xmlns="http://www.w3.org/2000/svg">
<path d="M2.97715 0.602451L3.01284 0.51625L2.9213 0.53427C2.34551 0.647619 1.81662 0.930137 1.40226 1.34569C0.243784 2.50418 0.243787 4.38266 1.40227 5.54114C2.56103 6.69991 4.4392 6.69962 5.59797 5.54119C6.01344 5.12686 6.29595 4.59809 6.40943 4.02242L6.42747 3.93086L6.34125 3.96655C5.87075 4.16126 5.35309 4.21215 4.85368 4.1128C4.35426 4.01344 3.8955 3.7683 3.53534 3.40834C3.17536 3.04821 2.9302 2.58945 2.83085 2.09003C2.73149 1.59061 2.78241 1.07295 2.97715 0.602451Z" fill="#0045A3" fill-opacity="0.5" stroke="#2F80ED" stroke-width="0.1"/>
</svg>
