<svg width="23" height="24" viewBox="0 0 23 24" fill="none" xmlns="http://www.w3.org/2000/svg">
<path d="M14.4367 8.625C14.4367 9.58036 14.0952 10.3973 13.4121 11.0759C12.7291 11.7545 11.9099 12.0938 10.9545 12.0938C9.99917 12.0938 9.17998 11.7545 8.49694 11.0759C7.8139 10.3973 7.47239 9.58036 7.47239 8.625C7.47239 7.66071 7.8139 6.83929 8.49694 6.16071C9.17998 5.48214 9.99917 5.14286 10.9545 5.14286C11.9099 5.14286 12.7291 5.48214 13.4121 6.16071C14.0952 6.83929 14.4367 7.66071 14.4367 8.625ZM13.7938 11.5714C14.2045 11.5714 14.5728 11.6473 14.8987 11.7991C15.2246 11.9509 15.4925 12.1629 15.7023 12.4353C15.9121 12.7076 16.0885 13.0067 16.2313 13.3326C16.3742 13.6585 16.4813 14.0201 16.5527 14.4174C16.6242 14.8147 16.6755 15.183 16.7068 15.5223C16.738 15.8616 16.7536 16.2143 16.7536 16.5804C16.7536 17.1786 16.5773 17.7076 16.2246 18.1674C15.8719 18.6272 15.401 18.8571 14.8117 18.8571H7.09739C6.5081 18.8571 6.03712 18.6272 5.68444 18.1674C5.33176 17.7076 5.15542 17.1786 5.15542 16.5804C5.15542 16.1518 5.17551 15.7344 5.21569 15.3281C5.25587 14.9219 5.33846 14.4821 5.46346 14.0089C5.58846 13.5357 5.7514 13.1272 5.9523 12.7835C6.15319 12.4397 6.43444 12.1518 6.79605 11.9196C7.15765 11.6875 7.57506 11.5714 8.04828 11.5714H8.11524C8.17774 11.6071 8.3206 11.6942 8.54381 11.8326C8.76703 11.971 8.92551 12.0647 9.01926 12.1138C9.11301 12.1629 9.26033 12.2388 9.46123 12.3415C9.66212 12.4442 9.8273 12.5156 9.95676 12.5558C10.0862 12.596 10.2425 12.6362 10.4255 12.6763C10.6085 12.7165 10.7849 12.7366 10.9545 12.7366C11.1242 12.7366 11.3005 12.7165 11.4835 12.6763C11.6666 12.6362 11.8228 12.596 11.9523 12.5558C12.0818 12.5156 12.2469 12.4442 12.4478 12.3415C12.6487 12.2388 12.796 12.1629 12.8898 12.1138C12.9835 12.0647 13.142 11.971 13.3652 11.8326C13.5885 11.6942 13.7313 11.6071 13.7938 11.5714ZM22.9545 8.14286C22.9545 8.25893 22.9121 8.35938 22.8273 8.4442C22.7425 8.52902 22.642 8.57143 22.526 8.57143H21.2402V10.2857H22.526C22.642 10.2857 22.7425 10.3281 22.8273 10.4129C22.9121 10.4978 22.9545 10.5982 22.9545 10.7143V13.2857C22.9545 13.4018 22.9121 13.5022 22.8273 13.5871C22.7425 13.6719 22.642 13.7143 22.526 13.7143H21.2402V15.4286H22.526C22.642 15.4286 22.7425 15.471 22.8273 15.5558C22.9121 15.6406 22.9545 15.7411 22.9545 15.8571V18.4286C22.9545 18.5446 22.9121 18.6451 22.8273 18.7299C22.7425 18.8147 22.642 18.8571 22.526 18.8571H21.2402V21.8571C21.2402 22.4464 21.0304 22.9509 20.6108 23.3705C20.1911 23.7902 19.6867 24 19.0974 24H2.81167C2.22239 24 1.71792 23.7902 1.29828 23.3705C0.878636 22.9509 0.668815 22.4464 0.668815 21.8571V2.14286C0.668815 1.55357 0.878636 1.04911 1.29828 0.629464C1.71792 0.209821 2.22239 0 2.81167 0H19.0974C19.6867 0 20.1911 0.209821 20.6108 0.629464C21.0304 1.04911 21.2402 1.55357 21.2402 2.14286V5.14286H22.526C22.642 5.14286 22.7425 5.18527 22.8273 5.27009C22.9121 5.35491 22.9545 5.45536 22.9545 5.57143V8.14286ZM19.526 21.8571V2.14286C19.526 2.02679 19.4835 1.92634 19.3987 1.84152C19.3139 1.7567 19.2135 1.71429 19.0974 1.71429H2.81167C2.6956 1.71429 2.59515 1.7567 2.51033 1.84152C2.42551 1.92634 2.3831 2.02679 2.3831 2.14286V21.8571C2.3831 21.9732 2.42551 22.0737 2.51033 22.1585C2.59515 22.2433 2.6956 22.2857 2.81167 22.2857H19.0974C19.2135 22.2857 19.3139 22.2433 19.3987 22.1585C19.4835 22.0737 19.526 21.9732 19.526 21.8571Z" fill="black"/>
</svg>
