<svg width="40" height="41" viewBox="0 0 40 41" fill="none" xmlns="http://www.w3.org/2000/svg">
<path d="M22.77 16.7053C22.77 17.6607 22.4285 18.4776 21.7454 19.1562C21.0624 19.8348 20.2432 20.1741 19.2879 20.1741C18.3325 20.1741 17.5133 19.8348 16.8303 19.1562C16.1472 18.4776 15.8057 17.6607 15.8057 16.7053C15.8057 15.741 16.1472 14.9196 16.8303 14.241C17.5133 13.5625 18.3325 13.2232 19.2879 13.2232C20.2432 13.2232 21.0624 13.5625 21.7454 14.241C22.4285 14.9196 22.77 15.741 22.77 16.7053ZM22.1271 19.6518C22.5379 19.6518 22.9062 19.7276 23.232 19.8794C23.5579 20.0312 23.8258 20.2433 24.0356 20.5156C24.2454 20.7879 24.4218 21.087 24.5646 21.4129C24.7075 21.7388 24.8146 22.1004 24.8861 22.4977C24.9575 22.8951 25.0088 23.2634 25.0401 23.6026C25.0713 23.9419 25.087 24.2946 25.087 24.6607C25.087 25.2589 24.9106 25.7879 24.5579 26.2477C24.2053 26.7076 23.7343 26.9375 23.145 26.9375H15.4307C14.8414 26.9375 14.3704 26.7076 14.0178 26.2477C13.6651 25.7879 13.4887 25.2589 13.4887 24.6607C13.4887 24.2321 13.5088 23.8147 13.549 23.4084C13.5892 23.0022 13.6718 22.5625 13.7968 22.0893C13.9218 21.616 14.0847 21.2076 14.2856 20.8638C14.4865 20.5201 14.7678 20.2321 15.1294 20C15.491 19.7678 15.9084 19.6518 16.3816 19.6518H16.4486C16.5111 19.6875 16.6539 19.7745 16.8771 19.9129C17.1004 20.0513 17.2588 20.1451 17.3526 20.1942C17.4463 20.2433 17.5937 20.3192 17.7945 20.4218C17.9954 20.5245 18.1606 20.5959 18.2901 20.6361C18.4195 20.6763 18.5758 20.7165 18.7588 20.7567C18.9419 20.7968 19.1182 20.8169 19.2879 20.8169C19.4575 20.8169 19.6338 20.7968 19.8169 20.7567C19.9999 20.7165 20.1562 20.6763 20.2856 20.6361C20.4151 20.5959 20.5803 20.5245 20.7812 20.4218C20.982 20.3192 21.1294 20.2433 21.2231 20.1942C21.3169 20.1451 21.4754 20.0513 21.6986 19.9129C21.9218 19.7745 22.0646 19.6875 22.1271 19.6518ZM31.2879 16.2232C31.2879 16.3393 31.2454 16.4397 31.1606 16.5245C31.0758 16.6093 30.9754 16.6518 30.8593 16.6518H29.5736V18.366H30.8593C30.9754 18.366 31.0758 18.4084 31.1606 18.4933C31.2454 18.5781 31.2879 18.6785 31.2879 18.7946V21.366C31.2879 21.4821 31.2454 21.5826 31.1606 21.6674C31.0758 21.7522 30.9754 21.7946 30.8593 21.7946H29.5736V23.5089H30.8593C30.9754 23.5089 31.0758 23.5513 31.1606 23.6361C31.2454 23.7209 31.2879 23.8214 31.2879 23.9375V26.5089C31.2879 26.625 31.2454 26.7254 31.1606 26.8102C31.0758 26.8951 30.9754 26.9375 30.8593 26.9375H29.5736V29.9375C29.5736 30.5268 29.3637 31.0312 28.9441 31.4509C28.5245 31.8705 28.02 32.0803 27.4307 32.0803H11.145C10.5557 32.0803 10.0512 31.8705 9.6316 31.4509C9.21196 31.0312 9.00214 30.5268 9.00214 29.9375V10.2232C9.00214 9.63389 9.21196 9.12943 9.6316 8.70979C10.0512 8.29014 10.5557 8.08032 11.145 8.08032H27.4307C28.02 8.08032 28.5245 8.29014 28.9441 8.70979C29.3637 9.12943 29.5736 9.63389 29.5736 10.2232V13.2232H30.8593C30.9754 13.2232 31.0758 13.2656 31.1606 13.3504C31.2454 13.4352 31.2879 13.5357 31.2879 13.6518V16.2232ZM27.8593 29.9375V10.2232C27.8593 10.1071 27.8169 10.0067 27.732 9.92184C27.6472 9.83702 27.5468 9.79461 27.4307 9.79461H11.145C11.0289 9.79461 10.9285 9.83702 10.8437 9.92184C10.7588 10.0067 10.7164 10.1071 10.7164 10.2232V29.9375C10.7164 30.0535 10.7588 30.154 10.8437 30.2388C10.9285 30.3236 11.0289 30.366 11.145 30.366H27.4307C27.5468 30.366 27.6472 30.3236 27.732 30.2388C27.8169 30.154 27.8593 30.0535 27.8593 29.9375Z" fill="#6FCF97"/>
<rect x="1" y="1.08032" width="38" height="38" rx="19" stroke="#6FCF97" stroke-width="2"/>
</svg>
