<svg width="40" height="40" viewBox="0 0 40 40" fill="none" xmlns="http://www.w3.org/2000/svg">
<path d="M30.1836 19.8359L20.5297 10.1891C20.4602 10.1194 20.3776 10.0642 20.2867 10.0265C20.1958 9.98877 20.0984 9.96936 20 9.96936C19.9016 9.96936 19.8042 9.98877 19.7133 10.0265C19.6224 10.0642 19.5398 10.1194 19.4703 10.1891L9.8164 19.8359C9.53515 20.1172 9.37578 20.4992 9.37578 20.8977C9.37578 21.725 10.0484 22.3977 10.8758 22.3977H11.893V29.2813C11.893 29.6961 12.2281 30.0313 12.643 30.0313H18.5V24.7813H21.125V30.0313H27.357C27.7719 30.0313 28.107 29.6961 28.107 29.2813V22.3977H29.1242C29.5227 22.3977 29.9047 22.2406 30.1859 21.957C30.7695 21.3711 30.7695 20.4219 30.1836 19.8359V19.8359Z" fill="#6FCF97"/>
<path d="M20 38C10.0589 38 2 29.9411 2 20H-2C-2 32.1503 7.84974 42 20 42V38ZM38 20C38 29.9411 29.9411 38 20 38V42C32.1503 42 42 32.1503 42 20H38ZM20 2C29.9411 2 38 10.0589 38 20H42C42 7.84974 32.1503 -2 20 -2V2ZM20 -2C7.84974 -2 -2 7.84974 -2 20H2C2 10.0589 10.0589 2 20 2V-2Z" fill="#6FCF97"/>
</svg>
