<svg width="40" height="40" viewBox="0 0 40 40" fill="none" xmlns="http://www.w3.org/2000/svg">
<path d="M39 20C39 30.4934 30.4934 39 20 39C9.50659 39 1 30.4934 1 20C1 9.50659 9.50659 1 20 1C30.4934 1 39 9.50659 39 20Z" stroke="black" stroke-width="2"/>
<path d="M30 29.5V31H9.75L9 30.25V10H10.5V29.5H30Z" fill="black"/>
<path d="M27 14.8105L19.281 22.531H18.219L15.75 20.0605L10.281 25.531L9.219 24.469L15.219 18.469H16.281L18.75 20.9395L26.469 13.219H27.5295L30.5295 16.219L29.469 17.281L27 14.8105Z" fill="black"/>
</svg>
