<svg width="40" height="40" viewBox="0 0 40 40" fill="none" xmlns="http://www.w3.org/2000/svg">
<path fill-rule="evenodd" clip-rule="evenodd" d="M24.8 14H20V16.4H24.8V14ZM24.8 17.6H20V18.8H24.8V17.6ZM18.8 14H15.2V18.8H18.8V14ZM18.8 21.2H24.8V20H18.8V21.2ZM22.4 23.6H24.8V22.4H22.4V23.6ZM24.8 24.8H15.2V26H24.8V24.8ZM21.2 22.4H15.2V23.6H21.2V22.4ZM17.6 20H15.2V21.2H17.6V20ZM28.4 9.19995H11.6C11.2818 9.19995 10.9765 9.32638 10.7515 9.55142C10.5265 9.77647 10.4 10.0817 10.4 10.4V29.6C10.4 29.9182 10.5265 30.2234 10.7515 30.4485C10.9765 30.6735 11.2818 30.8 11.6 30.8H28.4C28.7183 30.8 29.0235 30.6735 29.2486 30.4485C29.4736 30.2234 29.6 29.9182 29.6 29.6V10.4C29.6 10.0817 29.4736 9.77647 29.2486 9.55142C29.0235 9.32638 28.7183 9.19995 28.4 9.19995ZM27.2 28.4H12.8V11.6H27.2V28.4Z" fill="black"/>
<path d="M39 20C39 30.4934 30.4934 39 20 39C9.50659 39 1 30.4934 1 20C1 9.50659 9.50659 1 20 1C30.4934 1 39 9.50659 39 20Z" stroke="black" stroke-width="2"/>
</svg>
