<svg width="40" height="40" viewBox="0 0 40 40" fill="none" xmlns="http://www.w3.org/2000/svg">
<path d="M39 20C39 30.4934 30.4934 39 20 39C9.50659 39 1 30.4934 1 20C1 9.50659 9.50659 1 20 1C30.4934 1 39 9.50659 39 20Z" stroke="black" stroke-width="2"/>
<path d="M22.7679 16.625C22.7679 17.5804 22.4263 18.3973 21.7433 19.0759C21.0603 19.7545 20.2411 20.0938 19.2857 20.0938C18.3304 20.0938 17.5112 19.7545 16.8281 19.0759C16.1451 18.3973 15.8036 17.5804 15.8036 16.625C15.8036 15.6607 16.1451 14.8393 16.8281 14.1607C17.5112 13.4821 18.3304 13.1429 19.2857 13.1429C20.2411 13.1429 21.0603 13.4821 21.7433 14.1607C22.4263 14.8393 22.7679 15.6607 22.7679 16.625ZM22.125 19.5714C22.5357 19.5714 22.904 19.6473 23.2299 19.7991C23.5558 19.9509 23.8237 20.1629 24.0335 20.4353C24.2433 20.7076 24.4196 21.0067 24.5625 21.3326C24.7054 21.6585 24.8125 22.0201 24.8839 22.4174C24.9554 22.8147 25.0067 23.183 25.0379 23.5223C25.0692 23.8616 25.0848 24.2143 25.0848 24.5804C25.0848 25.1786 24.9085 25.7076 24.5558 26.1674C24.2031 26.6272 23.7321 26.8571 23.1429 26.8571H15.4286C14.8393 26.8571 14.3683 26.6272 14.0156 26.1674C13.6629 25.7076 13.4866 25.1786 13.4866 24.5804C13.4866 24.1518 13.5067 23.7344 13.5469 23.3281C13.5871 22.9219 13.6696 22.4821 13.7946 22.0089C13.9196 21.5357 14.0826 21.1272 14.2835 20.7835C14.4844 20.4397 14.7656 20.1518 15.1272 19.9196C15.4888 19.6875 15.9062 19.5714 16.3795 19.5714H16.4464C16.5089 19.6071 16.6518 19.6942 16.875 19.8326C17.0982 19.971 17.2567 20.0647 17.3504 20.1138C17.4442 20.1629 17.5915 20.2388 17.7924 20.3415C17.9933 20.4442 18.1585 20.5156 18.2879 20.5558C18.4174 20.596 18.5737 20.6362 18.7567 20.6763C18.9397 20.7165 19.1161 20.7366 19.2857 20.7366C19.4554 20.7366 19.6317 20.7165 19.8147 20.6763C19.9978 20.6362 20.154 20.596 20.2835 20.5558C20.4129 20.5156 20.5781 20.4442 20.779 20.3415C20.9799 20.2388 21.1272 20.1629 21.221 20.1138C21.3147 20.0647 21.4732 19.971 21.6964 19.8326C21.9196 19.6942 22.0625 19.6071 22.125 19.5714ZM31.2857 16.1429C31.2857 16.2589 31.2433 16.3594 31.1585 16.4442C31.0737 16.529 30.9732 16.5714 30.8571 16.5714H29.5714V18.2857H30.8571C30.9732 18.2857 31.0737 18.3281 31.1585 18.4129C31.2433 18.4978 31.2857 18.5982 31.2857 18.7143V21.2857C31.2857 21.4018 31.2433 21.5022 31.1585 21.5871C31.0737 21.6719 30.9732 21.7143 30.8571 21.7143H29.5714V23.4286H30.8571C30.9732 23.4286 31.0737 23.471 31.1585 23.5558C31.2433 23.6406 31.2857 23.7411 31.2857 23.8571V26.4286C31.2857 26.5446 31.2433 26.6451 31.1585 26.7299C31.0737 26.8147 30.9732 26.8571 30.8571 26.8571H29.5714V29.8571C29.5714 30.4464 29.3616 30.9509 28.942 31.3705C28.5223 31.7902 28.0179 32 27.4286 32H11.1429C10.5536 32 10.0491 31.7902 9.62946 31.3705C9.20982 30.9509 9 30.4464 9 29.8571V10.1429C9 9.55357 9.20982 9.04911 9.62946 8.62946C10.0491 8.20982 10.5536 8 11.1429 8H27.4286C28.0179 8 28.5223 8.20982 28.942 8.62946C29.3616 9.04911 29.5714 9.55357 29.5714 10.1429V13.1429H30.8571C30.9732 13.1429 31.0737 13.1853 31.1585 13.2701C31.2433 13.3549 31.2857 13.4554 31.2857 13.5714V16.1429ZM27.8571 29.8571V10.1429C27.8571 10.0268 27.8147 9.92634 27.7299 9.84152C27.6451 9.7567 27.5446 9.71429 27.4286 9.71429H11.1429C11.0268 9.71429 10.9263 9.7567 10.8415 9.84152C10.7567 9.92634 10.7143 10.0268 10.7143 10.1429V29.8571C10.7143 29.9732 10.7567 30.0737 10.8415 30.1585C10.9263 30.2433 11.0268 30.2857 11.1429 30.2857H27.4286C27.5446 30.2857 27.6451 30.2433 27.7299 30.1585C27.8147 30.0737 27.8571 29.9732 27.8571 29.8571Z" fill="#333333"/>
</svg>
