<svg width="16" height="22" viewBox="0 0 16 22" fill="none" xmlns="http://www.w3.org/2000/svg">
<path d="M4 14.0001H12M6 21.0001H10H6ZM1 8.00006C1 6.14355 1.7375 4.36307 3.05025 3.05032C4.36301 1.73756 6.14349 1.00006 8 1.00006C9.85652 1.00006 11.637 1.73756 12.9497 3.05032C14.2625 4.36307 15 6.14355 15 8.00006C15.0007 9.12714 14.7281 10.2376 14.2056 11.2362C13.6831 12.2349 12.9263 13.092 12 13.7341L11.458 16.3001C11.3862 16.773 11.1473 17.2046 10.7846 17.5165C10.4219 17.8284 9.95938 18 9.481 18.0001H6.519C6.04062 18 5.57811 17.8284 5.21539 17.5165C4.85267 17.2046 4.61376 16.773 4.542 16.3001L4 13.7451C3.07341 13.1007 2.31657 12.2416 1.79415 11.2412C1.27173 10.2407 0.999256 9.12869 1 8.00006V8.00006Z" stroke="black" stroke-width="2" stroke-linecap="round" stroke-linejoin="round"/>
</svg>
