<svg width="50" height="50" viewBox="0 0 50 50" fill="none" xmlns="http://www.w3.org/2000/svg">
<path d="M20.1063 0.214326H10.1063V10.2143H20.1063V0.214326Z" fill="#0C2973"/>
<path d="M30.1063 0.214326H20.1063V10.2143H30.1063V0.214326Z" fill="#0C2973"/>
<path d="M40.1063 0.214326H30.1063V10.2143H40.1063V0.214326Z" fill="#0C2973"/>
<path d="M20.1063 10.2143H10.1063V20.2143H20.1063V10.2143Z" fill="#0C2973"/>
<path d="M20.1063 20.2143H10.1063V30.2143H20.1063V20.2143Z" fill="#0C2973"/>
<path d="M30.1063 20.2143H20.1063V30.2143H30.1063V20.2143Z" fill="#0C2973"/>
<path d="M10.1063 0.214326L0.106331 0.214325V10.2143L10.1063 10.2143V0.214326Z" fill="#0F7B35" fill-opacity="0.26"/>
<path d="M10.1063 10.2143L0.106331 10.2143V20.2143L10.1063 20.2143V10.2143Z" fill="#0F7B35" fill-opacity="0.26"/>
<path d="M10.1063 20.2143L0.106331 20.2143V30.2143L10.1063 30.2143V20.2143Z" fill="#0F7B35" fill-opacity="0.26"/>
<path d="M10.1063 30.2143L0.106331 30.2143V40.2143H10.1063V30.2143Z" fill="#FAB101" fill-opacity="0.26"/>
<path d="M10.1063 40.2143H0.106331V50.2143H10.1063V40.2143Z" fill="#A6151F" fill-opacity="0.26"/>
<path d="M50.1063 0.214325L40.1063 0.214326V10.2143L50.1063 10.2143V0.214325Z" fill="#FAB101" fill-opacity="0.26"/>
<path d="M30.1063 10.2143H20.1063V20.2143H30.1063V10.2143Z" fill="#FAB101" fill-opacity="0.26"/>
<path d="M40.1063 10.2143H30.1063V20.2143L40.1063 20.2143V10.2143Z" fill="#FAB101" fill-opacity="0.26"/>
<path d="M50.1063 10.2143L40.1063 10.2143V20.2143H50.1063V10.2143Z" fill="#FAB101" fill-opacity="0.26"/>
<path d="M50.1063 20.2143H40.1063L40.1063 30.2143H50.1063V20.2143Z" fill="#A6151F" fill-opacity="0.26"/>
<path d="M30.1063 30.2143H20.1063V40.2143H30.1063V30.2143Z" fill="#A6151F" fill-opacity="0.26"/>
<path d="M40.1063 30.2143L30.1063 30.2143V40.2143H40.1063L40.1063 30.2143Z" fill="#A6151F" fill-opacity="0.26"/>
<path d="M50.1063 30.2143H40.1063L40.1063 40.2143H50.1063V30.2143Z" fill="#A6151F" fill-opacity="0.26"/>
<path d="M50.1063 40.2143H40.1063L40.1063 50.2143H50.1063V40.2143Z" fill="#A6151F" fill-opacity="0.26"/>
<path d="M40.1063 20.2143L30.1063 20.2143V30.2143L40.1063 30.2143L40.1063 20.2143Z" fill="#FAB101" fill-opacity="0.26"/>
<path d="M20.1063 30.2143H10.1063V40.2143H20.1063V30.2143Z" fill="#0C2973"/>
<path d="M20.1063 40.2143H10.1063V50.2143H20.1063V40.2143Z" fill="#0C2973"/>
<path d="M30.1063 40.2143H20.1063V50.2143H30.1063V40.2143Z" fill="#0C2973"/>
<path d="M40.1063 40.2143H30.1063V50.2143H40.1063L40.1063 40.2143Z" fill="#0C2973"/>
<path d="M0.106331 0.214325L0.106331 -0.285675L-0.393669 -0.285675V0.214325H0.106331ZM0.106331 50.2143H-0.393669V50.7143H0.106331V50.2143ZM50.1063 0.214325H50.6063V-0.285675L50.1063 -0.285675L50.1063 0.214325ZM50.1063 50.2143V50.7143H50.6063V50.2143H50.1063ZM20.1063 -0.285674H10.1063V0.714326H20.1063V-0.285674ZM9.60633 0.214326V10.2143H10.6063V0.214326H9.60633ZM10.1063 10.7143H20.1063V9.71433H10.1063V10.7143ZM20.6063 10.2143V0.214326H19.6063V10.2143H20.6063ZM30.1063 -0.285674H20.1063V0.714326H30.1063V-0.285674ZM20.1063 10.7143H30.1063V9.71433H20.1063V10.7143ZM30.6063 10.2143V0.214326H29.6063V10.2143H30.6063ZM40.1063 -0.285674H30.1063V0.714326H40.1063V-0.285674ZM30.1063 10.7143H40.1063V9.71433H30.1063V10.7143ZM40.6063 10.2143V0.214326H39.6063V10.2143H40.6063ZM9.60633 10.2143V20.2143H10.6063V10.2143H9.60633ZM10.1063 20.7143H20.1063V19.7143H10.1063V20.7143ZM20.6063 20.2143V10.2143H19.6063V20.2143H20.6063ZM9.60633 20.2143V30.2143H10.6063V20.2143H9.60633ZM10.1063 30.7143H20.1063V29.7143H10.1063V30.7143ZM20.6063 30.2143V20.2143H19.6063V30.2143H20.6063ZM30.1063 19.7143H20.1063V20.7143H30.1063V19.7143ZM20.1063 30.7143H30.1063V29.7143H20.1063V30.7143ZM30.6063 30.2143V20.2143H29.6063V30.2143H30.6063ZM10.1063 -0.285674L0.106331 -0.285675L0.106331 0.714325L10.1063 0.714326L10.1063 -0.285674ZM-0.393669 0.214325V10.2143H0.606331V0.214325H-0.393669ZM0.106331 10.7143L10.1063 10.7143L10.1063 9.71433L0.106331 9.71432L0.106331 10.7143ZM-0.393669 10.2143V20.2143H0.606331V10.2143H-0.393669ZM0.106331 20.7143L10.1063 20.7143L10.1063 19.7143L0.106331 19.7143L0.106331 20.7143ZM-0.393669 20.2143V30.2143H0.606331V20.2143H-0.393669ZM0.106331 30.7143L10.1063 30.7143L10.1063 29.7143L0.106331 29.7143L0.106331 30.7143ZM-0.393669 30.2143V40.2143H0.606331V30.2143H-0.393669ZM0.106331 40.7143H10.1063V39.7143H0.106331V40.7143ZM10.6063 40.2143V30.2143H9.60633V40.2143H10.6063ZM-0.393669 40.2143V50.2143H0.606331V40.2143H-0.393669ZM0.106331 50.7143H10.1063V49.7143H0.106331V50.7143ZM10.6063 50.2143V40.2143H9.60633V50.2143H10.6063ZM50.1063 -0.285675L40.1063 -0.285674L40.1063 0.714326L50.1063 0.714325L50.1063 -0.285675ZM40.1063 10.7143L50.1063 10.7143L50.1063 9.71432L40.1063 9.71433L40.1063 10.7143ZM50.6063 10.2143V0.214325H49.6063V10.2143H50.6063ZM30.6063 20.2143V10.2143H29.6063V20.2143H30.6063ZM30.1063 20.7143L40.1063 20.7143L40.1063 19.7143L30.1063 19.7143L30.1063 20.7143ZM40.6063 20.2143V10.2143H39.6063V20.2143H40.6063ZM40.1063 20.7143H50.1063V19.7143H40.1063V20.7143ZM50.6063 20.2143V10.2143H49.6063V20.2143H50.6063ZM39.6063 20.2143L39.6063 30.2143L40.6063 30.2143L40.6063 20.2143L39.6063 20.2143ZM40.1063 30.7143H50.1063V29.7143H40.1063V30.7143ZM50.6063 30.2143V20.2143H49.6063V30.2143H50.6063ZM19.6063 30.2143V40.2143H20.6063V30.2143H19.6063ZM20.1063 40.7143H30.1063V39.7143H20.1063V40.7143ZM30.6063 40.2143V30.2143H29.6063V40.2143H30.6063ZM40.1063 29.7143L30.1063 29.7143L30.1063 30.7143L40.1063 30.7143L40.1063 29.7143ZM30.1063 40.7143H40.1063V39.7143H30.1063V40.7143ZM40.6063 40.2143L40.6063 30.2143L39.6063 30.2143L39.6063 40.2143L40.6063 40.2143ZM40.1063 40.7143H50.1063V39.7143H40.1063V40.7143ZM50.6063 40.2143V30.2143H49.6063V40.2143H50.6063ZM39.6063 40.2143L39.6063 50.2143L40.6063 50.2143L40.6063 40.2143L39.6063 40.2143ZM40.1063 50.7143H50.1063V49.7143H40.1063V50.7143ZM50.6063 50.2143V40.2143H49.6063V50.2143H50.6063ZM10.1063 40.7143H20.1063V39.7143H10.1063V40.7143ZM10.1063 50.7143H20.1063V49.7143H10.1063V50.7143ZM20.6063 50.2143V40.2143H19.6063V50.2143H20.6063ZM20.1063 50.7143H30.1063V49.7143H20.1063V50.7143ZM30.6063 50.2143V40.2143H29.6063V50.2143H30.6063ZM30.1063 50.7143H40.1063V49.7143H30.1063V50.7143Z" fill="white"/>
</svg>
